<svg width="18" height="18" viewBox="0 0 18 18" fill="none" xmlns="http://www.w3.org/2000/svg">
<path fill-rule="evenodd" clip-rule="evenodd" d="M9.80002 8.19998V1.79998C9.80002 1.35846 9.44156 1 8.99993 1C8.55844 1 8.19998 1.35846 8.19998 1.79998V8.19998H1.79995C1.35846 8.19998 1 8.55844 1 8.99993C1 9.44156 1.35846 9.80002 1.79995 9.80002H8.19998V16.1999C8.19998 16.6415 8.55844 17 8.99993 17C9.44156 17 9.80002 16.6415 9.80002 16.1999V9.80002H16.1999C16.6415 9.80002 17 9.44156 17 8.99993C17 8.55844 16.6415 8.19998 16.1999 8.19998H9.80002Z" fill="#202124" stroke="#202124"/>
</svg>
