<svg width="123" height="123" viewBox="0 0 123 123" fill="none" xmlns="http://www.w3.org/2000/svg">
<mask id="mask0" mask-type="alpha" maskUnits="userSpaceOnUse" x="51" y="13" width="62" height="97">
<path fill-rule="evenodd" clip-rule="evenodd" d="M51.25 13.6667L112.75 13.6667L112.75 109.333L51.25 109.333L51.25 13.6667Z" fill="white"/>
</mask>
<g mask="url(#mask0)">
<path fill-rule="evenodd" clip-rule="evenodd" d="M101.29 103.728L62.71 103.728C59.5454 103.728 56.9798 101.218 56.9798 98.1218L56.9798 24.8779C56.9798 21.782 59.5454 19.2721 62.71 19.2721L101.29 19.2721C104.455 19.2721 107.02 21.782 107.02 24.8779L107.02 98.1218C107.02 101.218 104.455 103.728 101.29 103.728ZM104.155 13.6666L59.8451 13.6666C55.0981 13.6666 51.25 17.4313 51.25 22.0752L51.25 30.48V45.677V51.3162L51.25 65.4338L51.25 71.5192L51.25 83.3075L51.25 89.393V96.9589V101.281C51.25 105.603 55.4924 109.333 58.5414 109.333L104.155 109.333C108.902 109.333 112.75 105.569 112.75 100.925L112.75 22.0752C112.75 17.4313 108.902 13.6666 104.155 13.6666Z" fill="#225684"/>
</g>
<path fill-rule="evenodd" clip-rule="evenodd" d="M71.7501 45.7609C73.7944 45.7609 75.4575 47.2561 75.4575 49.0935C75.4575 50.9306 73.7955 52.425 71.7522 52.4262C71.7514 52.4262 71.7507 52.426 71.7501 52.426C71.7494 52.426 71.7487 52.4262 71.7479 52.4262C69.7046 52.425 68.0426 50.9306 68.0426 49.0935C68.0426 47.2561 69.7057 45.7609 71.7501 45.7609ZM68.4787 57.8233L68.4787 96.1427C68.4787 97.7667 69.9434 99.0833 71.75 99.0833C73.5566 99.0833 75.0213 97.7667 75.0213 96.1427L75.0213 57.8233C79.0733 56.5932 82 53.1461 82 49.0936C82 45.0411 79.0733 41.5939 75.0213 40.3638V30.2739C75.0213 28.6499 73.5566 27.3333 71.75 27.3333C69.9434 27.3333 68.4787 28.6499 68.4787 30.2739V40.3638C64.4267 41.5939 61.5 45.0411 61.5 49.0936C61.5 53.1461 64.4267 56.5932 68.4787 57.8233Z" fill="#00944C"/>
<path fill-rule="evenodd" clip-rule="evenodd" d="M92.2501 73.9904C94.2944 73.9904 95.9575 75.4858 95.9575 77.3231C95.9575 79.1608 94.2944 80.6558 92.2501 80.6558C90.2057 80.6558 88.5426 79.1608 88.5426 77.3231C88.5426 75.4858 90.2057 73.9904 92.2501 73.9904ZM88.7606 85.9864V96.1427C88.7606 97.7667 90.2253 99.0833 92.0319 99.0833C93.8385 99.0833 95.3032 97.7667 95.3032 96.1427V86.1193C99.4688 84.9485 102.5 81.4483 102.5 77.323C102.5 73.2705 99.5733 69.8233 95.5213 68.5934L95.5213 30.2739C95.5213 28.6497 94.0566 27.3333 92.25 27.3333C90.4434 27.3333 88.9787 28.6497 88.9787 30.2739L88.9787 68.5934C84.9267 69.8233 82 73.2705 82 77.323C82 81.303 84.8216 84.7007 88.7606 85.9864Z" fill="#00944C"/>
<path fill-rule="evenodd" clip-rule="evenodd" d="M44.4167 100.216L40.9701 100.216C39.7905 100.216 38.6098 100.139 37.4404 99.9854V95.5279C37.4404 94.268 36.6574 93.1576 35.515 92.797C34.2589 92.4006 33.0406 91.8662 31.8937 91.2084C30.8439 90.6063 29.5443 90.8054 28.6995 91.6978L25.7131 94.853C24.784 94.0886 23.8974 93.2612 23.0627 92.3794C22.2278 91.4972 21.4446 90.5605 20.7212 89.579L23.7075 86.4236C24.5523 85.5314 24.7408 84.1575 24.1708 83.0485C23.5482 81.8368 23.0425 80.5498 22.6674 79.2226C22.3263 78.0154 21.2752 77.1879 20.0828 77.1879H15.863C15.7179 75.9531 15.6447 74.705 15.6447 73.458C15.6447 72.2109 15.7179 70.9632 15.863 69.7285H20.0828C21.2752 69.7285 22.3263 68.9011 22.6674 67.6938C23.0425 66.3669 23.5482 65.0796 24.1708 63.868C24.7408 62.7588 24.5523 61.3856 23.7075 60.4928L20.7212 57.3375C21.4448 56.356 22.2279 55.4191 23.0627 54.5375C23.8974 53.6553 24.784 52.8281 25.7131 52.0635L28.6995 55.2186C29.5441 56.1113 30.8437 56.3104 31.8937 55.7081C33.0404 55.0503 34.2589 54.5158 35.515 54.1195C36.6576 53.7589 37.4404 52.6485 37.4404 51.3886V46.931C39.7517 46.6276 42.1048 46.6242 44.4167 46.921V41.1868C43.2723 41.0635 42.1207 41.0004 40.9701 41C38.6982 41 36.422 41.2419 34.2048 41.719C32.9484 41.9893 32.0456 43.1567 32.0456 44.5116V49.3592C31.7457 49.4833 31.4483 49.6138 31.1533 49.7506L27.9084 46.3221C27.0019 45.3641 25.582 45.2127 24.5128 45.9605C22.6271 47.2784 20.8561 48.808 19.2481 50.5068C17.6397 52.2062 16.1918 54.0779 14.9449 56.07C14.2376 57.1998 14.3807 58.6996 15.2874 59.6574L18.5322 63.086C18.4029 63.3976 18.2793 63.7118 18.1619 64.0287H13.5732C12.291 64.0287 11.186 64.9825 10.9301 66.3099C10.4789 68.6503 10.25 71.0553 10.25 73.4584C10.25 75.861 10.4789 78.2662 10.9301 80.6068C11.186 81.9341 12.291 82.8879 13.5732 82.8879H18.1617C18.2793 83.2048 18.4029 83.5191 18.532 83.8307L15.2872 87.2593C14.3807 88.217 14.2374 89.7169 14.9447 90.8466C16.1918 92.8388 17.6395 94.7103 19.2481 96.41C20.8557 98.1086 22.6271 99.6381 24.5128 100.956C25.5822 101.704 27.0017 101.553 27.9084 100.595L31.1533 97.166C31.4483 97.3028 31.7457 97.4332 32.0456 97.5574V102.405C32.0456 103.76 32.9484 104.927 34.2048 105.198C36.422 105.675 38.6982 105.917 40.9705 105.917H44.4167V100.216Z" fill="#DE9D1F"/>
<path fill-rule="evenodd" clip-rule="evenodd" d="M40.6144 66.8587C41.962 66.8587 43.2755 67.1969 44.4167 67.8233V62.0053C43.1918 61.6747 41.9124 61.5 40.6144 61.5C33.2911 61.5 27.3333 66.8643 27.3333 73.4582C27.3333 80.052 33.2913 85.4167 40.6144 85.4167C41.9124 85.4167 43.1918 85.2418 44.4167 84.9111L44.4167 79.093C43.2755 79.7198 41.962 80.0577 40.6144 80.0577C36.5728 80.0577 33.2849 77.0971 33.2849 73.4582C33.2849 69.8192 36.573 66.8587 40.6144 66.8587Z" fill="#DE9D1F"/>
</svg>
