<svg width="123" height="123" viewBox="0 0 123 123" fill="none" xmlns="http://www.w3.org/2000/svg">
<path fill-rule="evenodd" clip-rule="evenodd" d="M102.812 28.1422L33.8117 20.5983C30.8587 20.1986 27.8584 21.0292 25.5771 22.8803C23.3133 24.5777 21.8412 27.125 21.5388 29.858L20.5 38.0595L28.0846 38.0842L28.5118 30.5896C28.7201 29.6251 29.2521 28.7395 30.0168 28.0842C30.9133 27.5024 31.9969 27.2287 33.0751 27.3125L101.962 34.9794C103.032 35.0773 103.999 35.5711 104.684 36.3691C105.37 37.1676 105.691 38.175 105.59 39.2018L99.6464 88.642L99.6391 88.7026L99.6396 88.7633C99.6473 89.7309 99.1799 90.665 98.3896 91.2629L98.2979 91.3414C98.1712 91.463 97.8071 91.6226 97.5656 91.7281C97.054 91.9519 96.3534 92.2585 96.3534 93.0153L96.3536 99.0833L97.5775 98.8558C99.4533 98.5066 101.201 97.798 102.771 96.7501L102.847 96.6937C105.105 94.8636 106.534 92.3011 106.872 89.4761L112.687 40.0615C113.336 34.1856 108.906 28.8387 102.812 28.1422Z" fill="#00944C"/>
<path fill-rule="evenodd" clip-rule="evenodd" d="M61.5 56.1306C64.4653 56.1306 66.8691 58.5344 66.8691 61.4997C66.8691 64.465 64.4653 66.8688 61.5 66.8688C58.5348 66.8688 56.1312 64.465 56.1312 61.4997C56.1312 58.5344 58.5348 56.1306 61.5 56.1306ZM61.5 71.75C67.1608 71.75 71.75 67.161 71.75 61.5C71.75 55.839 67.161 51.25 61.5 51.25C55.8392 51.25 51.25 55.839 51.25 61.5C51.25 67.1608 55.8392 71.75 61.5 71.75Z" fill="#DE9D1F"/>
<mask id="mask0" mask-type="alpha" maskUnits="userSpaceOnUse" x="10" y="37" width="90" height="73">
<path fill-rule="evenodd" clip-rule="evenodd" d="M10.25 37.5833L99.0833 37.5833L99.0833 109.333L10.25 109.333L10.25 37.5833Z" fill="white"/>
</mask>
<g mask="url(#mask0)">
<path fill-rule="evenodd" clip-rule="evenodd" d="M17.1349 98.847L17.1365 90.2385L35.7049 76.5732C37.6042 75.1143 40.2527 75.2422 42.0028 76.8782L55.356 88.6461L55.3738 88.6616C57.5667 90.5039 60.3514 91.5428 63.218 91.5873C65.4765 91.6084 67.6834 91.0153 69.5995 89.8626L92.2002 76.7758V98.7908C92.2002 100.944 89.8886 102.445 87.814 102.445L20.6666 102.445L20.6373 102.445C19.726 102.471 18.8619 102.143 18.1996 101.518C17.5373 100.893 17.158 100.048 17.1311 99.1356C17.1283 99.0398 17.1295 98.9426 17.1349 98.847ZM59.9743 83.4801L46.5108 71.6009C44.2767 69.6801 41.5274 68.7112 38.7696 68.7112C36.2974 68.7112 33.8185 69.4903 31.7003 71.0612L17.1365 81.6593L17.1365 48.737C17.1365 46.685 18.4861 44.4704 20.6666 44.4704L87.7924 44.4704C90.1457 44.5779 92.0338 46.4205 92.2002 48.7705L92.2002 68.7244L66.025 83.9821C64.1016 85.122 61.6645 84.9158 59.9743 83.4801ZM99.0832 48.737L99.0825 48.7024C98.8713 42.6057 93.9314 37.7217 87.8138 37.5833L20.6666 37.5833C14.9249 37.5833 10.2533 42.587 10.2533 48.737L10.2533 98.7778C10.1845 101.522 11.186 104.13 13.0745 106.123C14.9661 108.118 17.5214 109.257 20.2679 109.329C20.3597 109.332 20.4519 109.333 20.54 109.333C20.583 109.333 20.6257 109.333 20.6666 109.332L87.814 109.332C93.9228 109.332 99.0834 104.505 99.0834 98.7907L99.0832 48.737Z" fill="#225684"/>
</g>
</svg>
