<svg width="10" height="17" viewBox="0 0 10 17" fill="none" xmlns="http://www.w3.org/2000/svg">
<path fill-rule="evenodd" clip-rule="evenodd" d="M9.07989 7.87568L2.0101 0.755608C1.84659 0.590796 1.62834 0.5 1.3956 0.5C1.16285 0.5 0.944541 0.590796 0.781025 0.755608L0.260385 1.27983C-0.0783996 1.62142 -0.0783996 2.1766 0.260385 2.51767L6.19709 8.49668L0.253798 14.4823C0.0902822 14.6471 0 14.8668 0 15.1011C0 15.3357 0.0902822 15.5554 0.253798 15.7203L0.774438 16.2444C0.938083 16.4092 1.15623 16.5 1.38898 16.5C1.62172 16.5 1.84 16.4092 2.00352 16.2444L9.07989 9.11782C9.24379 8.95248 9.33382 8.73174 9.33333 8.49707C9.33382 8.2615 9.24379 8.04088 9.07989 7.87568Z" fill="black"/>
</svg>
