<svg width="123" height="123" viewBox="0 0 123 123" fill="none" xmlns="http://www.w3.org/2000/svg">
<path fill-rule="evenodd" clip-rule="evenodd" d="M75.5334 51.3699L44.1179 51.3699C42.4332 51.3699 41.0679 51.7604 41.0679 54.591C41.0679 57.4215 42.4332 58.0834 44.1179 58.0834L75.5334 58.0834C77.2179 58.0834 78.5834 57.4215 78.5834 54.591C78.5834 51.7604 77.2179 51.3699 75.5334 51.3699Z" fill="#DE9D1F"/>
<path fill-rule="evenodd" clip-rule="evenodd" d="M71.3823 34.2029L44.1179 34.2029C42.4332 34.2029 41.0679 34.6536 41.0679 37.4841C41.0679 40.3147 42.4332 41 44.1179 41L75.5334 41C77.2179 41 78.5834 40.3147 78.5834 37.4841C78.5834 34.6536 77.2179 34.2029 75.5334 34.2029" fill="#DE9D1F"/>
<path fill-rule="evenodd" clip-rule="evenodd" d="M44.5634 71.75C42.6328 71.75 41 72.4459 41 75.2764C41 78.107 42.6328 78.5833 44.5634 78.5833H66.4303C68.3609 78.5833 69.8581 78.107 69.8581 75.2764C69.8581 72.4459 68.3609 71.75 66.4303 71.75H44.5634Z" fill="#DE9D1F"/>
<mask id="mask0" mask-type="alpha" maskUnits="userSpaceOnUse" x="20" y="13" width="80" height="97">
<path fill-rule="evenodd" clip-rule="evenodd" d="M20.5 13.6667L99.0833 13.6667L99.0833 109.333L20.5 109.333L20.5 13.6667Z" fill="white"/>
</mask>
<g mask="url(#mask0)">
<path fill-rule="evenodd" clip-rule="evenodd" d="M42.0368 102.785C35.9203 102.785 35.9886 102.785 35.9886 102.785C31.7186 102.785 27.2935 98.5066 27.2935 94.3855L27.2935 28.6147C27.2935 24.4935 31.7186 20.5778 35.9886 20.5778L83.5948 20.5778C87.865 20.5778 92.9167 24.2664 92.9167 28.3875L92.9167 51.3699C92.9167 53.4339 93.6395 54.7267 95.7783 54.7267C97.9169 54.7267 99.0834 53.661 99.0834 51.5971L99.0834 28.6147C99.0834 20.3724 92.135 13.6667 83.5948 13.6667L35.9886 13.6667C27.4482 13.6667 20.5 20.3724 20.5 28.6147L20.5 94.3855C20.5 102.628 27.4482 109.333 35.9886 109.333H48.9388C51.0776 109.333 52.7652 108.129 52.7652 106.065C52.7652 104.001 51.0776 102.785 48.9388 102.785" fill="#225684"/>
</g>
<mask id="mask1" mask-type="alpha" maskUnits="userSpaceOnUse" x="58" y="64" width="45" height="46">
<path fill-rule="evenodd" clip-rule="evenodd" d="M58.0835 64.9167L102.5 64.9167L102.5 109.333L58.0835 109.333L58.0835 64.9167Z" fill="white"/>
</mask>
<g mask="url(#mask1)">
<path fill-rule="evenodd" clip-rule="evenodd" d="M94.0903 78.6329L93.379 79.3487L88.187 74.1135L88.8959 73.4003C90.3273 71.9568 92.6564 71.9568 94.0878 73.4003C95.5192 74.8434 95.5192 77.1918 94.0903 78.6329ZM74.6625 98.1852L67.2077 100.267L69.3895 93.0251L82.9891 79.3425L88.182 84.5786L74.6625 98.1852ZM99.2796 68.1646C94.9852 63.8347 87.9983 63.8345 83.7068 68.1617L63.5512 88.4399C63.1231 88.8706 62.8074 89.4011 62.6315 89.9845L58.2421 104.556C57.8529 105.847 58.1921 107.25 59.127 108.217C59.8275 108.94 60.779 109.333 61.755 109.333C62.0816 109.333 62.4113 109.289 62.7351 109.199L77.5528 105.06C78.1626 104.89 78.7184 104.564 79.1663 104.113L99.2797 83.8701C103.574 79.5402 103.574 72.495 99.2796 68.1646Z" fill="#00944C"/>
</g>
</svg>
