<svg width="24" height="24" viewBox="0 0 24 24" fill="none" xmlns="http://www.w3.org/2000/svg">
<mask id="mask0" mask-type="alpha" maskUnits="userSpaceOnUse" x="1" y="1" width="22" height="22">
<path fill-rule="evenodd" clip-rule="evenodd" d="M1 1H23V23H1V1Z" fill="white"/>
</mask>
<g mask="url(#mask0)">
<path fill-rule="evenodd" clip-rule="evenodd" d="M13.5557 12L19.7782 5.77742C20.2075 5.34814 20.2075 4.6511 19.7781 4.22171C19.3489 3.79246 18.6518 3.79246 18.2225 4.22174L12 10.4443L5.77743 4.22171C5.34819 3.79246 4.65114 3.79246 4.2219 4.22171C3.79251 4.6511 3.79251 5.34814 4.22175 5.77738L10.4443 12L4.2219 18.2224C3.79251 18.6518 3.79251 19.3488 4.22175 19.7781C4.65114 20.2074 5.34819 20.2074 5.77758 19.7781L12 13.5556L18.2224 19.7781C18.6518 20.2074 19.3489 20.2074 19.7782 19.7781C20.2075 19.3488 20.2075 18.6518 19.7781 18.2224L13.5557 12Z" fill="#202124"/>
</g>
</svg>
