<svg width="123" height="123" viewBox="0 0 123 123" fill="none" xmlns="http://www.w3.org/2000/svg">
<path fill-rule="evenodd" clip-rule="evenodd" d="M63.2083 33.5865C68.2383 33.5865 72.3305 37.6786 72.3305 42.7085C72.3305 47.7382 68.2383 51.8304 63.2083 51.8304C58.1784 51.8304 54.0862 47.7382 54.0862 42.7085C54.0862 37.6786 58.1784 33.5865 63.2083 33.5865ZM63.2083 58.0833C71.6863 58.0833 78.5833 51.1861 78.5833 42.7084C78.5833 34.2305 71.6863 27.3333 63.2083 27.3333C54.7306 27.3333 47.8333 34.2305 47.8333 42.7084C47.8333 51.1861 54.7306 58.0833 63.2083 58.0833Z" fill="#225684"/>
<mask id="mask0" mask-type="alpha" maskUnits="userSpaceOnUse" x="37" y="64" width="52" height="32">
<path fill-rule="evenodd" clip-rule="evenodd" d="M37.5833 64.9166L88.8333 64.9166V95.6666L37.5833 95.6666L37.5833 64.9166Z" fill="white"/>
</mask>
<g mask="url(#mask0)">
<path fill-rule="evenodd" clip-rule="evenodd" d="M63.2083 64.9166C49.0787 64.9166 37.5833 77.3085 37.5833 92.5402C37.5833 94.2642 38.8843 95.6666 40.4836 95.6666C42.0828 95.6666 43.3838 94.2642 43.3838 92.5402C43.3838 80.7565 52.277 71.1695 63.2083 71.1695C74.1395 71.1695 83.0328 80.7565 83.0328 92.5402C83.0328 94.2642 84.3338 95.6666 85.9331 95.6666C87.5323 95.6666 88.8333 94.2642 88.8333 92.5402C88.8333 77.3085 77.338 64.9166 63.2083 64.9166Z" fill="#225684"/>
</g>
<path fill-rule="evenodd" clip-rule="evenodd" d="M94.509 54.6669C94.509 52.1446 96.5612 50.0925 99.0833 50.0925C101.606 50.0925 103.658 52.1446 103.658 54.6669C103.658 57.1892 101.606 59.2412 99.0833 59.2412C96.5612 59.2412 94.509 57.1892 94.509 54.6669ZM99.0833 64.9166C104.735 64.9166 109.333 60.3187 109.333 54.6667C109.333 49.0148 104.735 44.4166 99.0833 44.4166C93.4314 44.4166 88.8333 49.0148 88.8333 54.6667C88.8333 60.3187 93.4314 64.9166 99.0833 64.9166Z" fill="#00944C"/>
<mask id="mask1" mask-type="alpha" maskUnits="userSpaceOnUse" x="88" y="71" width="32" height="22">
<path fill-rule="evenodd" clip-rule="evenodd" d="M88.8333 71.75L119.583 71.75V92.25H88.8333V71.75Z" fill="white"/>
</mask>
<g mask="url(#mask1)">
<path fill-rule="evenodd" clip-rule="evenodd" d="M100.306 71.75C96.7828 71.75 93.3299 72.6322 90.3156 74.3041C88.8626 75.12 88.3971 76.8678 89.2817 78.2053C90.1736 79.5357 92.0808 79.9613 93.5347 79.1544C95.5665 78.0234 97.9082 77.4257 100.306 77.4257C107.52 77.4257 113.389 82.8027 113.389 89.4121C113.389 90.977 114.778 92.25 116.486 92.25C118.194 92.25 119.583 90.977 119.583 89.4121C119.583 79.6731 110.936 71.75 100.306 71.75Z" fill="#00944C"/>
</g>
<path fill-rule="evenodd" clip-rule="evenodd" d="M19.3425 54.6669C19.3425 52.1446 21.3945 50.0925 23.9168 50.0925C26.439 50.0925 28.4908 52.1446 28.4908 54.6669C28.4908 57.1892 26.439 59.2412 23.9168 59.2412C21.3945 59.2412 19.3425 57.1892 19.3425 54.6669ZM23.9168 64.9166C29.5686 64.9166 34.1667 60.3187 34.1667 54.6667C34.1667 49.0148 29.5686 44.4166 23.9168 44.4166C18.2647 44.4166 13.6667 49.0148 13.6667 54.6667C13.6667 60.3187 18.2647 64.9166 23.9168 64.9166Z" fill="#DE9D1F"/>
<path fill-rule="evenodd" clip-rule="evenodd" d="M32.6762 74.2994L32.6726 74.2975C29.6655 72.6309 26.2143 71.75 22.6923 71.75C12.0638 71.75 3.41667 79.6733 3.41667 89.4121C3.41667 90.977 4.80619 92.25 6.51384 92.25C8.22168 92.25 9.6112 90.977 9.6112 89.4121C9.61101 86.2158 10.9732 83.2071 13.447 80.9406C15.9206 78.674 19.204 77.4257 22.6923 77.4257C25.0893 77.4257 27.4294 78.0222 29.4582 79.15C30.9149 79.9623 32.8237 79.536 33.7134 78.1991C34.1451 77.5511 34.2739 76.7879 34.0763 76.0505C33.8795 75.316 33.3824 74.6941 32.6762 74.2994Z" fill="#DE9D1F"/>
</svg>
