<svg width="40" height="40" viewBox="0 0 40 40" fill="none" xmlns="http://www.w3.org/2000/svg">
<path fill-rule="evenodd" clip-rule="evenodd" d="M6.74233 6.31944C6.5613 6.31944 6.41413 6.45954 6.41413 6.63186V12.2568C6.41413 12.4294 6.5613 12.5695 6.74233 12.5695H16.5908C16.772 12.5695 16.9192 12.4294 16.9192 12.2568V6.63186C16.9192 6.45954 16.772 6.31944 16.5908 6.31944H6.74233ZM16.5908 14.4445H6.74233C5.4752 14.4445 4.44444 13.4633 4.44444 12.2568V6.63186C4.44444 5.42566 5.4752 4.44446 6.74233 4.44446H16.5908C17.8581 4.44446 18.8889 5.42566 18.8889 6.63186V12.2568C18.8889 13.4633 17.8581 14.4445 16.5908 14.4445Z" fill="#00944C"/>
<path fill-rule="evenodd" clip-rule="evenodd" d="M6.74233 19.6826C6.5613 19.6826 6.41413 19.8249 6.41413 20.0002V33.3335C6.41413 33.5086 6.5613 33.6508 6.74233 33.6508H16.5908C16.772 33.6508 16.9192 33.5086 16.9192 33.3335V20.0002C16.9192 19.8249 16.772 19.6826 16.5908 19.6826H6.74233ZM16.5908 35.5556H6.74233C5.4752 35.5556 4.44444 34.5588 4.44444 33.3335V20.0002C4.44444 18.7746 5.4752 17.7778 6.74233 17.7778H16.5908C17.8581 17.7778 18.8889 18.7746 18.8889 20.0002V33.3335C18.8889 34.5588 17.8581 35.5556 16.5908 35.5556Z" fill="#DE9D1F"/>
<path fill-rule="evenodd" clip-rule="evenodd" d="M23.4092 27.4305C23.228 27.4305 23.0808 27.5706 23.0808 27.7432V33.3681C23.0808 33.5405 23.228 33.6806 23.4092 33.6806H33.2577C33.4387 33.6806 33.5859 33.5405 33.5859 33.3681V27.7432C33.5859 27.5706 33.4387 27.4305 33.2577 27.4305H23.4092ZM33.2577 35.5555H23.4092C22.1419 35.5555 21.1111 34.5743 21.1111 33.3681V27.7432C21.1111 26.5367 22.1419 25.5555 23.4092 25.5555H33.2577C34.5248 25.5555 35.5556 26.5367 35.5556 27.7432V33.3681C35.5556 34.5743 34.5248 35.5555 33.2577 35.5555Z" fill="#8F9094"/>
<path fill-rule="evenodd" clip-rule="evenodd" d="M23.4092 6.34921C23.228 6.34921 23.0808 6.49153 23.0808 6.66659V19.9999C23.0808 20.1752 23.228 20.3175 23.4092 20.3175H33.2577C33.4387 20.3175 33.5859 20.1752 33.5859 19.9999V6.66659C33.5859 6.49153 33.4387 6.34921 33.2577 6.34921H23.4092ZM33.2577 22.2222H23.4092C22.1419 22.2222 21.1111 21.2255 21.1111 19.9999V6.6666C21.1111 5.44124 22.1419 4.44446 23.4092 4.44446H33.2577C34.5248 4.44446 35.5556 5.44124 35.5556 6.6666V19.9999C35.5556 21.2255 34.5248 22.2222 33.2577 22.2222Z" fill="#225684"/>
</svg>
