<svg width="12" height="6" viewBox="0 0 12 6" fill="none" xmlns="http://www.w3.org/2000/svg">
<path fill-rule="evenodd" clip-rule="evenodd" d="M11.3272 0.187969L11.3272 0.187948C11.212 0.0669177 11.0574 0.000173925 10.8919 0H10.8913C10.726 0 10.5716 0.0664176 10.4563 0.187056L6.15079 4.69398C6.10964 4.73717 6.05611 4.76094 6.00012 4.76094C5.94396 4.76094 5.89027 4.73707 5.84877 4.69354L1.54372 0.187056C1.42846 0.0664176 1.274 0 1.10873 0H1.10814C0.942616 0.000152184 0.788022 0.0668959 0.672813 0.187969C0.442056 0.430573 0.442441 0.810251 0.673698 1.05236L4.97835 5.5584C5.24989 5.84318 5.61275 6 6.00012 6C6.3874 6 6.75008 5.84327 7.0212 5.55882L11.3263 1.05233C11.5576 0.81023 11.5579 0.430551 11.3272 0.187969Z" fill="black"/>
</svg>
