<svg width="24" height="24" viewBox="0 0 24 24" fill="none" xmlns="http://www.w3.org/2000/svg">
<mask id="mask0" mask-type="alpha" maskUnits="userSpaceOnUse" x="4" y="2" width="16" height="20">
<path fill-rule="evenodd" clip-rule="evenodd" d="M4 2H20V22H4V2Z" fill="white"/>
</mask>
<g mask="url(#mask0)">
<path fill-rule="evenodd" clip-rule="evenodd" d="M17.8753 6.21966H15.6849V4.07762C15.9587 4.34528 17.6569 6.00602 17.8753 6.21966ZM11.4898 8.17997L13.6802 10.322H11.4898V8.17997ZM14.5601 20.783H5.2446V7.3195H10.245V10.9307C10.245 11.2665 10.5239 11.5392 10.8674 11.5392H14.5601V20.783ZM18.7554 16.6805H15.8049V10.9307C15.8049 10.773 15.7421 10.6169 15.6226 10.5001L11.3077 6.28056C11.1905 6.16579 11.0315 6.10231 10.8674 6.10231H9.43986V3.21703H14.4403V6.82817C14.4403 7.16403 14.7191 7.43669 15.0626 7.43669H18.7554V16.6805ZM19.8179 6.39774L15.5028 2.17805C15.3845 2.06238 15.2252 2 15.0626 2H8.81742C8.47396 2 8.19514 2.27266 8.19514 2.60852V6.10247H4.62232C4.27886 6.10247 4 6.37501 4 6.71099V21.3915C4 21.7273 4.27886 22 4.62232 22H15.1824C15.526 22 15.8049 21.7273 15.8049 21.3915V17.8975H19.3777C19.7211 17.8975 20 17.625 20 17.289V6.82817C20 6.67345 19.9391 6.5163 19.8179 6.39774Z" fill="black"/>
</g>
</svg>
