<svg width="123" height="123" viewBox="0 0 123 123" fill="none" xmlns="http://www.w3.org/2000/svg">
<path fill-rule="evenodd" clip-rule="evenodd" d="M41.0477 12.6905L58.0354 12.6905V17.0833H64.9167V9.76191C64.9167 8.1446 63.3764 6.83334 61.4759 6.83334L37.6072 6.83334C35.7072 6.83334 34.1667 8.1446 34.1667 9.76191V17.0833H41.0477V12.6905Z" fill="#DE9D1F"/>
<path fill-rule="evenodd" clip-rule="evenodd" d="M78.5439 94.3C80.4526 94.3 82 93.0762 82 91.5667C82 90.0572 80.4526 88.8333 78.5439 88.8333L47.8725 88.8333C45.9642 88.8333 44.4167 90.0572 44.4167 91.5667C44.4167 93.0762 45.9642 94.3 47.8725 94.3H49.3848L49.3848 105.917H56.2965V94.3H70.1201V105.917H77.0319V94.3H78.5439Z" fill="#225684"/>
<path fill-rule="evenodd" clip-rule="evenodd" d="M37.4945 24.0506L88.9221 24.0506L88.9221 105.917H95.6667L95.6667 20.567C95.6667 18.6431 94.1569 17.0833 92.2944 17.0833L74.6426 17.0833L67.0023 17.0833H60.2576L43.6069 17.0833L36.8622 17.0833H34.8271H34.1223C32.2599 17.0833 30.75 18.6431 30.75 20.567L30.75 105.917H37.4945L37.4945 24.0506Z" fill="#225684"/>
<path fill-rule="evenodd" clip-rule="evenodd" d="M20.5 109.333C20.5 111.22 22.0146 112.75 23.8828 112.75L102.534 112.75C104.402 112.75 105.917 111.22 105.917 109.333C105.917 107.447 104.402 105.917 102.534 105.917H95.7682H89.0026H76.7398H69.974H56.4427H49.6771L37.4143 105.917H30.6484H23.8828C22.0146 105.917 20.5 107.447 20.5 109.333Z" fill="#225684"/>
<path fill-rule="evenodd" clip-rule="evenodd" d="M74.8934 46.706H70.7421C68.704 46.706 67.0521 48.2358 67.0521 50.1226C67.0521 52.0095 68.704 53.5393 70.7421 53.5393H74.8934C76.9314 53.5393 78.5833 52.0095 78.5833 50.1226C78.5833 48.2358 76.9314 46.706 74.8934 46.706Z" fill="#00944C"/>
<path fill-rule="evenodd" clip-rule="evenodd" d="M74.8934 34.1667H70.7421C68.704 34.1667 67.0521 35.6967 67.0521 37.5832C67.0521 39.4701 68.704 41 70.7421 41H74.8934C76.9314 41 78.5833 39.4701 78.5833 37.5832C78.5833 35.6967 76.9314 34.1667 74.8934 34.1667Z" fill="#00944C"/>
<path fill-rule="evenodd" clip-rule="evenodd" d="M74.8934 71.7842H70.7421C68.704 71.7842 67.0521 73.3142 67.0521 75.2011C67.0521 77.0877 68.704 78.6175 70.7421 78.6175H74.8934C76.9314 78.6175 78.5833 77.0877 78.5833 75.2011C78.5833 73.3142 76.9314 71.7842 74.8934 71.7842Z" fill="#00944C"/>
<path fill-rule="evenodd" clip-rule="evenodd" d="M74.8934 59.2449H70.7421C68.704 59.2449 67.0521 60.7747 67.0521 62.6618C67.0521 64.5487 68.704 66.0783 70.7421 66.0783H74.8934C76.9314 66.0783 78.5833 64.5487 78.5833 62.6618C78.5833 60.7747 76.9314 59.2449 74.8934 59.2449Z" fill="#00944C"/>
<path fill-rule="evenodd" clip-rule="evenodd" d="M55.6746 71.7842H51.5233C49.4855 71.7842 47.8333 73.3142 47.8333 75.2011C47.8333 77.0877 49.4855 78.6175 51.5233 78.6175H55.6746C57.7124 78.6175 59.3646 77.0877 59.3646 75.2011C59.3646 73.3142 57.7124 71.7842 55.6746 71.7842Z" fill="#00944C"/>
<path fill-rule="evenodd" clip-rule="evenodd" d="M55.6746 34.1667H51.5233C49.4855 34.1667 47.8333 35.6967 47.8333 37.5832C47.8333 39.4701 49.4855 41 51.5233 41H55.6746C57.7124 41 59.3646 39.4701 59.3646 37.5832C59.3646 35.6967 57.7124 34.1667 55.6746 34.1667Z" fill="#00944C"/>
<path fill-rule="evenodd" clip-rule="evenodd" d="M55.6746 46.706H51.5233C49.4855 46.706 47.8333 48.2358 47.8333 50.1226C47.8333 52.0095 49.4855 53.5393 51.5233 53.5393H55.6746C57.7124 53.5393 59.3646 52.0095 59.3646 50.1226C59.3646 48.2358 57.7124 46.706 55.6746 46.706Z" fill="#00944C"/>
<path fill-rule="evenodd" clip-rule="evenodd" d="M55.6746 59.2449H51.5233C49.4855 59.2449 47.8333 60.7747 47.8333 62.6618C47.8333 64.5487 49.4855 66.0783 51.5233 66.0783H55.6746C57.7124 66.0783 59.3646 64.5487 59.3646 62.6618C59.3646 60.7747 57.7124 59.2449 55.6746 59.2449Z" fill="#00944C"/>
</svg>
