<svg width="24" height="25" viewBox="0 0 24 25" fill="none" xmlns="http://www.w3.org/2000/svg">
<mask id="mask0" mask-type="alpha" maskUnits="userSpaceOnUse" x="4" y="1" width="16" height="23">
<path fill-rule="evenodd" clip-rule="evenodd" d="M4 1.5H20V23.5H4V1.5Z" fill="white"/>
</mask>
<g mask="url(#mask0)">
<path fill-rule="evenodd" clip-rule="evenodd" d="M14.9792 6.82318C14.9316 6.82318 14.8929 6.78284 14.8929 6.73323V4.22281L17.3877 6.82318H14.9792ZM5.52978 3.18445C5.52978 3.13484 5.56849 3.0945 5.61609 3.0945H13.3631V6.73323C13.3631 7.66204 14.0881 8.41768 14.9792 8.41768H18.4702V21.8155C18.4702 21.8652 18.4315 21.9055 18.3839 21.9055H5.61609C5.56849 21.9055 5.52978 21.8652 5.52978 21.8155V3.18445ZM19.7695 7.05091L14.6752 1.74112C14.5297 1.58563 14.3354 1.5 14.128 1.5H5.61609C4.72497 1.5 4 2.25564 4 3.18445V21.8155C4 22.7444 4.72497 23.5 5.61609 23.5H18.3839C19.275 23.5 20 22.7444 20 21.8155V7.62045C20 7.40465 19.9182 7.20246 19.7695 7.05091Z" fill="#202124"/>
</g>
</svg>
