<svg width="24" height="25" viewBox="0 0 24 25" fill="none" xmlns="http://www.w3.org/2000/svg">
<mask id="mask0" mask-type="alpha" maskUnits="userSpaceOnUse" x="6" y="9" width="11" height="7">
<path fill-rule="evenodd" clip-rule="evenodd" d="M17 15.5L6 15.5V9.5L17 9.5V15.5Z" fill="white"/>
</mask>
<g mask="url(#mask0)">
<path fill-rule="evenodd" clip-rule="evenodd" d="M6.17282 15.312L6.17284 15.3121C6.28798 15.4331 6.44255 15.4998 6.60805 15.5H6.60871C6.77398 15.5 6.92842 15.4336 7.0437 15.3129L11.3492 10.806C11.3904 10.7628 11.4439 10.7391 11.4999 10.7391C11.556 10.7391 11.6097 10.7629 11.6512 10.8065L15.9563 15.3129C16.0715 15.4336 16.226 15.5 16.3913 15.5H16.3919C16.5574 15.4998 16.712 15.4331 16.8272 15.312C17.0579 15.0694 17.0576 14.6897 16.8263 14.4476L12.5217 9.9416C12.2501 9.65682 11.8872 9.5 11.4999 9.5C11.1126 9.5 10.7499 9.65673 10.4788 9.94118L6.17368 14.4477C5.94244 14.6898 5.94206 15.0694 6.17282 15.312Z" fill="black"/>
</g>
</svg>
