<svg width="24" height="25" viewBox="0 0 24 25" fill="none" xmlns="http://www.w3.org/2000/svg">
<mask id="mask0" mask-type="alpha" maskUnits="userSpaceOnUse" x="6" y="10" width="11" height="7">
<path fill-rule="evenodd" clip-rule="evenodd" d="M6 10.5H17V16.5H6V10.5Z" fill="white"/>
</mask>
<g mask="url(#mask0)">
<path fill-rule="evenodd" clip-rule="evenodd" d="M16.8272 10.688L16.8272 10.6879C16.712 10.5669 16.5574 10.5002 16.3919 10.5H16.3913C16.226 10.5 16.0716 10.5664 15.9563 10.6871L11.6508 15.194C11.6096 15.2372 11.5561 15.2609 11.5001 15.2609C11.444 15.2609 11.3903 15.2371 11.3488 15.1935L7.04372 10.6871C6.92846 10.5664 6.774 10.5 6.60873 10.5H6.60814C6.44262 10.5002 6.28802 10.5669 6.17281 10.688C5.94206 10.9306 5.94244 11.3103 6.1737 11.5524L10.4783 16.0584C10.7499 16.3432 11.1128 16.5 11.5001 16.5C11.8874 16.5 12.2501 16.3433 12.5212 16.0588L16.8263 11.5523C17.0576 11.3102 17.0579 10.9306 16.8272 10.688Z" fill="black"/>
</g>
</svg>
