<svg width="24" height="24" viewBox="0 0 24 24" fill="none" xmlns="http://www.w3.org/2000/svg">
<path fill-rule="evenodd" clip-rule="evenodd" d="M23 13.0417H1C0.448 13.0417 0 12.5937 0 12.0417C0 11.4897 0.448 11.0417 1 11.0417H23C23.552 11.0417 24 11.4897 24 12.0417C24 12.5937 23.552 13.0417 23 13.0417Z" fill="black"/>
<path fill-rule="evenodd" clip-rule="evenodd" d="M23 7H1C0.448 7 0 6.552 0 6C0 5.448 0.448 5 1 5H23C23.552 5 24 5.448 24 6C24 6.552 23.552 7 23 7Z" fill="black"/>
<path fill-rule="evenodd" clip-rule="evenodd" d="M23 19.0835H1C0.448 19.0835 0 18.6355 0 18.0835C0 17.5315 0.448 17.0835 1 17.0835H23C23.552 17.0835 24 17.5315 24 18.0835C24 18.6355 23.552 19.0835 23 19.0835Z" fill="black"/>
</svg>
