<svg width="18" height="18" viewBox="0 0 18 18" fill="none" xmlns="http://www.w3.org/2000/svg">
<path fill-rule="evenodd" clip-rule="evenodd" d="M10.5557 8.99995L16.7782 2.77742C17.2075 2.34814 17.2075 1.6511 16.7781 1.22171C16.3489 0.792461 15.6518 0.792461 15.2225 1.22174L9 7.44427L2.77743 1.22171C2.34819 0.792461 1.65114 0.792461 1.2219 1.22171C0.792508 1.6511 0.792508 2.34814 1.22175 2.77738L7.44432 8.99995L1.2219 15.2224C0.792508 15.6518 0.792508 16.3488 1.22175 16.7781C1.65114 17.2074 2.34819 17.2074 2.77758 16.7781L9 10.5556L15.2224 16.7781C15.6518 17.2074 16.3489 17.2074 16.7782 16.7781C17.2075 16.3488 17.2075 15.6518 16.7781 15.2224L10.5557 8.99995Z" fill="#202124"/>
</svg>
