<svg width="34" height="34" viewBox="0 0 34 34" fill="none" xmlns="http://www.w3.org/2000/svg">
<path fill-rule="evenodd" clip-rule="evenodd" d="M20.8796 14.2H12.1956C11.73 14.2 11.3525 14.3079 11.3525 15.0903C11.3525 15.8728 11.73 16.0557 12.1956 16.0557H20.8796C21.3452 16.0557 21.7227 15.8728 21.7227 15.0903C21.7227 14.3079 21.3452 14.2 20.8796 14.2Z" fill="#DE9D1F"/>
<path fill-rule="evenodd" clip-rule="evenodd" d="M19.7321 9.45461H12.1956C11.73 9.45461 11.3525 9.57918 11.3525 10.3616C11.3525 11.144 11.73 11.3335 12.1956 11.3335H20.8796C21.3452 11.3335 21.7227 11.144 21.7227 10.3616C21.7227 9.57918 21.3452 9.45461 20.8796 9.45461" fill="#DE9D1F"/>
<path fill-rule="evenodd" clip-rule="evenodd" d="M12.319 19.8335C11.7853 19.8335 11.334 20.0259 11.334 20.8083C11.334 21.5907 11.7853 21.7224 12.319 21.7224H18.3635C18.8972 21.7224 19.311 21.5907 19.311 20.8083C19.311 20.0259 18.8972 19.8335 18.3635 19.8335H12.319Z" fill="#DE9D1F"/>
<mask id="mask0" mask-type="alpha" maskUnits="userSpaceOnUse" x="5" y="3" width="23" height="28">
<path fill-rule="evenodd" clip-rule="evenodd" d="M5.66699 3.77783H27.3892V30.2223H5.66699V3.77783Z" fill="white"/>
</mask>
<g mask="url(#mask0)">
<path fill-rule="evenodd" clip-rule="evenodd" d="M11.6203 28.4122C9.92951 28.4122 9.9484 28.4122 9.9484 28.4122C8.76807 28.4122 7.54487 27.2295 7.54487 26.0903V7.90978C7.54487 6.7706 8.76807 5.6882 9.9484 5.6882H23.1078C24.2882 5.6882 25.6846 6.70781 25.6846 7.84699V14.1999C25.6846 14.7704 25.8844 15.1277 26.4756 15.1277C27.0668 15.1277 27.3892 14.8332 27.3892 14.2626V7.90978C27.3892 5.63142 25.4685 3.77783 23.1078 3.77783H9.9484C7.58763 3.77783 5.66699 5.63142 5.66699 7.90978V26.0903C5.66699 28.3687 7.58763 30.2223 9.9484 30.2223H13.5281C14.1193 30.2223 14.5858 29.8892 14.5858 29.3187C14.5858 28.7482 14.1193 28.4122 13.5281 28.4122" fill="#225684"/>
</g>
<mask id="mask1" mask-type="alpha" maskUnits="userSpaceOnUse" x="16" y="17" width="13" height="14">
<path fill-rule="evenodd" clip-rule="evenodd" d="M16.0557 17.9446H28.3334V30.2224H16.0557V17.9446Z" fill="white"/>
</mask>
<g mask="url(#mask1)">
<path fill-rule="evenodd" clip-rule="evenodd" d="M26.0088 21.736L25.8121 21.9339L24.377 20.4867L24.5729 20.2896C24.9686 19.8906 25.6124 19.8906 26.0081 20.2896C26.4037 20.6885 26.4037 21.3377 26.0088 21.736ZM20.6385 27.1407L18.5778 27.7163L19.1809 25.7144L22.9401 21.9322L24.3756 23.3796L20.6385 27.1407ZM27.4432 18.8424C26.2561 17.6455 24.3248 17.6454 23.1385 18.8416L17.5671 24.4469C17.4487 24.566 17.3615 24.7126 17.3128 24.8739L16.0995 28.9016C15.9919 29.2588 16.0857 29.6465 16.3441 29.9136C16.5377 30.1137 16.8008 30.2224 17.0706 30.2224C17.1608 30.2224 17.252 30.2102 17.3415 30.1852L21.4374 29.0411C21.606 28.994 21.7596 28.9038 21.8834 28.7792L27.4432 23.1837C28.6302 21.9868 28.6302 20.0394 27.4432 18.8424Z" fill="#00944C"/>
</g>
</svg>
