<svg width="34" height="34" viewBox="0 0 34 34" fill="none" xmlns="http://www.w3.org/2000/svg">
<path fill-rule="evenodd" clip-rule="evenodd" d="M20.8796 14.2H12.1956C11.73 14.2 11.3525 14.3079 11.3525 15.0903C11.3525 15.8728 11.73 16.0557 12.1956 16.0557H20.8796C21.3452 16.0557 21.7227 15.8728 21.7227 15.0903C21.7227 14.3079 21.3452 14.2 20.8796 14.2Z" fill="#DE9D1F"/>
<path fill-rule="evenodd" clip-rule="evenodd" d="M19.7321 9.45461H12.1956C11.73 9.45461 11.3525 9.57918 11.3525 10.3616C11.3525 11.144 11.73 11.3335 12.1956 11.3335H20.8796C21.3452 11.3335 21.7227 11.144 21.7227 10.3616C21.7227 9.57918 21.3452 9.45461 20.8796 9.45461" fill="#DE9D1F"/>
<path fill-rule="evenodd" clip-rule="evenodd" d="M12.319 19.8335C11.7853 19.8335 11.334 20.0259 11.334 20.8083C11.334 21.5907 11.7853 21.7224 12.319 21.7224H18.3635C18.8972 21.7224 19.311 21.5907 19.311 20.8083C19.311 20.0259 18.8972 19.8335 18.3635 19.8335H12.319Z" fill="#DE9D1F"/>
<mask id="mask0" mask-type="alpha" maskUnits="userSpaceOnUse" x="5" y="3" width="23" height="28">
<path fill-rule="evenodd" clip-rule="evenodd" d="M5.66699 3.77783H27.3892V30.2223H5.66699V3.77783Z" fill="white"/>
</mask>
<g mask="url(#mask0)">
<path fill-rule="evenodd" clip-rule="evenodd" d="M11.6203 28.4122C9.92951 28.4122 9.9484 28.4122 9.9484 28.4122C8.76807 28.4122 7.54487 27.2295 7.54487 26.0903V7.90978C7.54487 6.7706 8.76807 5.6882 9.9484 5.6882H23.1078C24.2882 5.6882 25.6846 6.70781 25.6846 7.84699V14.1999C25.6846 14.7704 25.8844 15.1277 26.4756 15.1277C27.0668 15.1277 27.3892 14.8332 27.3892 14.2626V7.90978C27.3892 5.63142 25.4685 3.77783 23.1078 3.77783H9.9484C7.58763 3.77783 5.66699 5.63142 5.66699 7.90978V26.0903C5.66699 28.3687 7.58763 30.2223 9.9484 30.2223H13.5281C14.1193 30.2223 14.5858 29.8892 14.5858 29.3187C14.5858 28.7482 14.1193 28.4122 13.5281 28.4122" fill="#225684"/>
</g>
<mask id="mask1" mask-type="alpha" maskUnits="userSpaceOnUse" x="17" y="18" width="13" height="13">
<path fill-rule="evenodd" clip-rule="evenodd" d="M17.9443 18.8889H29.2777V30.2222H17.9443V18.8889Z" fill="white"/>
</mask>
<g mask="url(#mask1)">
<path fill-rule="evenodd" clip-rule="evenodd" d="M28.2658 23.5437H24.8253C24.7135 23.5437 24.6229 23.4531 24.6229 23.3413V19.9008C24.6229 19.342 24.1698 18.8889 23.611 18.8889C23.0522 18.8889 22.5991 19.342 22.5991 19.9008V23.3413C22.5991 23.4531 22.5085 23.5437 22.3967 23.5437H18.9562C18.3974 23.5437 17.9443 23.9968 17.9443 24.5556C17.9443 25.1144 18.3974 25.5675 18.9562 25.5675H22.3967C22.5085 25.5675 22.5991 25.6581 22.5991 25.7699V29.2103C22.5991 29.7691 23.0522 30.2222 23.611 30.2222C24.1698 30.2222 24.6229 29.7691 24.6229 29.2103V25.7699C24.6229 25.6581 24.7135 25.5675 24.8253 25.5675H28.2658C28.8246 25.5675 29.2777 25.1144 29.2777 24.5556C29.2777 23.9968 28.8246 23.5437 28.2658 23.5437Z" fill="black"/>
</g>
</svg>
