<svg width="40" height="40" viewBox="0 0 40 40" fill="none" xmlns="http://www.w3.org/2000/svg">
<path fill-rule="evenodd" clip-rule="evenodd" d="M24.5637 16.7056H14.3473C13.7994 16.7056 13.3554 16.8326 13.3554 17.7531C13.3554 18.6736 13.7994 18.8888 14.3473 18.8888H24.5637C25.1115 18.8888 25.5556 18.6736 25.5556 17.7531C25.5556 16.8326 25.1115 16.7056 24.5637 16.7056Z" fill="#DE9D1F"/>
<path fill-rule="evenodd" clip-rule="evenodd" d="M23.2137 11.1228H14.3473C13.7994 11.1228 13.3554 11.2694 13.3554 12.1899C13.3554 13.1104 13.7994 13.3333 14.3473 13.3333H24.5637C25.1115 13.3333 25.5556 13.1104 25.5556 12.1899C25.5556 11.2694 25.1115 11.1228 24.5637 11.1228" fill="#DE9D1F"/>
<path fill-rule="evenodd" clip-rule="evenodd" d="M14.4922 23.3333C13.8643 23.3333 13.3333 23.5596 13.3333 24.4801C13.3333 25.4006 13.8643 25.5555 14.4922 25.5555H21.6034C22.2312 25.5555 22.7181 25.4006 22.7181 24.4801C22.7181 23.5596 22.2312 23.3333 21.6034 23.3333H14.4922Z" fill="#DE9D1F"/>
<mask id="mask0" mask-type="alpha" maskUnits="userSpaceOnUse" x="6" y="4" width="27" height="32">
<path fill-rule="evenodd" clip-rule="evenodd" d="M6.66667 4.44434H32.2222V35.5554H6.66667V4.44434Z" fill="white"/>
</mask>
<g mask="url(#mask0)">
<path fill-rule="evenodd" clip-rule="evenodd" d="M13.6705 33.426C11.6814 33.426 11.7036 33.426 11.7036 33.426C10.315 33.426 8.87591 32.0345 8.87591 30.6943V9.30545C8.87591 7.96524 10.315 6.69183 11.7036 6.69183H27.1853C28.574 6.69183 30.2168 7.89137 30.2168 9.23158V16.7055C30.2168 17.3767 30.4518 17.7972 31.1474 17.7972C31.8429 17.7972 32.2222 17.4506 32.2222 16.7794V9.30545C32.2222 6.62503 29.9626 4.44434 27.1853 4.44434H11.7036C8.92621 4.44434 6.66664 6.62503 6.66664 9.30545V30.6943C6.66664 33.3748 8.92621 35.5554 11.7036 35.5554H15.915C16.6106 35.5554 17.1594 35.1636 17.1594 34.4924C17.1594 33.8213 16.6106 33.426 15.915 33.426" fill="#225684"/>
</g>
<mask id="mask1" mask-type="alpha" maskUnits="userSpaceOnUse" x="18" y="21" width="16" height="15">
<path fill-rule="evenodd" clip-rule="evenodd" d="M18.8889 21.1111H33.3333V35.5555H18.8889V21.1111Z" fill="white"/>
</mask>
<g mask="url(#mask1)">
<path fill-rule="evenodd" clip-rule="evenodd" d="M30.5984 25.5716L30.3671 25.8044L28.6786 24.1019L28.9092 23.8699C29.3747 23.4005 30.1321 23.4005 30.5976 23.8699C31.0631 24.3393 31.0631 25.103 30.5984 25.5716ZM24.2804 31.9301L21.8561 32.6072L22.5656 30.252L26.9883 25.8024L28.677 27.5052L24.2804 31.9301ZM32.286 22.1673C30.8894 20.7592 28.6173 20.7591 27.2217 22.1663L20.667 28.7609C20.5278 28.901 20.4251 29.0735 20.3679 29.2632L18.9405 34.0018C18.8139 34.4219 18.9242 34.8781 19.2282 35.1923C19.456 35.4277 19.7655 35.5555 20.0829 35.5555C20.1891 35.5555 20.2963 35.5412 20.4016 35.5118L25.2204 34.1658C25.4187 34.1105 25.5994 34.0043 25.7451 33.8577L32.286 27.2748C33.6825 25.8667 33.6825 23.5755 32.286 22.1673Z" fill="#00944C"/>
</g>
</svg>
