<svg width="40" height="41" viewBox="0 0 40 41" fill="none" xmlns="http://www.w3.org/2000/svg">
<path fill-rule="evenodd" clip-rule="evenodd" d="M17.7778 35.7555C14.7157 35.7555 12.2222 34.0942 12.2222 32.0518C12.2222 31.6429 12.72 31.311 13.3333 31.311C13.9467 31.311 14.4444 31.6429 14.4444 32.0518C14.4444 33.2776 15.9408 34.274 17.7778 34.274C19.6148 34.274 21.1111 33.2776 21.1111 32.0518C21.1111 31.6429 21.6089 31.311 22.2222 31.311C22.8355 31.311 23.3333 31.6429 23.3333 32.0518C23.3333 34.0942 20.8401 35.7555 17.7778 35.7555Z" fill="#DE9D1F"/>
<path fill-rule="evenodd" clip-rule="evenodd" d="M6.8749 32.4222C5.53467 32.4222 4.44444 31.3943 4.44444 30.1308C4.44444 29.4602 4.75421 28.8253 5.29437 28.3892C5.32921 28.3604 5.36658 28.3342 5.40551 28.3105C7.4443 26.6332 8.6111 24.2199 8.6111 21.6718L8.6111 18.0186C8.6111 13.7539 11.6763 10.0928 16.0652 9.1145C16.6262 8.99272 17.1875 9.31613 17.3195 9.84528C17.4512 10.373 17.1041 10.9019 16.5459 11.0264C13.0999 11.7936 10.6944 14.6691 10.6944 18.0186L10.6944 21.6718C10.6944 24.8354 9.22346 27.8288 6.66253 29.8831C6.6417 29.899 6.62367 29.9133 6.60127 29.9277C6.5639 29.9723 6.52777 30.0404 6.52777 30.1308C6.52777 30.3087 6.68623 30.4581 6.8749 30.4581L29.7915 30.4581C29.9804 30.4581 30.1389 30.3087 30.1389 30.1308C30.1389 30.039 30.1028 29.9723 30.0639 29.9277C30.043 29.9133 30.0235 29.899 30.0041 29.8831C28.7597 28.8828 27.7776 27.6756 27.0861 26.2941C26.8389 25.8043 27.061 25.2191 27.5818 24.986C28.1069 24.753 28.7221 24.9651 28.9681 25.4547C29.5179 26.5495 30.2887 27.5107 31.2637 28.3146C31.2998 28.3381 31.3375 28.363 31.3692 28.3892C31.9125 28.8253 32.2222 29.4602 32.2222 30.1308C32.2222 31.3943 31.132 32.4222 29.7915 32.4222L6.8749 32.4222Z" fill="#225684"/>
<mask id="mask0" mask-type="alpha" maskUnits="userSpaceOnUse" x="18" y="3" width="19" height="19">
<path fill-rule="evenodd" clip-rule="evenodd" d="M18.8889 3.5332L36.6667 3.5332V21.311L18.8889 21.311L18.8889 3.5332Z" fill="white"/>
</mask>
<g mask="url(#mask0)">
<path fill-rule="evenodd" clip-rule="evenodd" d="M27.7777 5.5845C24.0074 5.5845 20.9402 8.65195 20.9402 12.4222C20.9402 16.1925 24.0074 19.2597 27.7777 19.2597C31.5479 19.2597 34.6154 16.1925 34.6154 12.4222C34.6154 8.65195 31.5479 5.5845 27.7777 5.5845ZM27.7777 21.311C22.8765 21.311 18.8889 17.3233 18.8889 12.4222C18.8889 7.52085 22.8765 3.5332 27.7777 3.5332C32.679 3.5332 36.6667 7.52085 36.6667 12.4222C36.6667 17.3233 32.679 21.311 27.7777 21.311Z" fill="#00944C"/>
</g>
<path fill-rule="evenodd" clip-rule="evenodd" d="M27.0708 14.8465V10.907H26.4646C25.9628 10.907 25.5556 10.4997 25.5556 9.99794C25.5556 9.49613 25.9628 9.08887 26.4646 9.08887H27.9798C28.4816 9.08887 28.8889 9.49613 28.8889 9.99794V14.8465C28.8889 15.3483 28.4816 15.7555 27.9798 15.7555C27.478 15.7555 27.0708 15.3483 27.0708 14.8465Z" fill="#00944C"/>
</svg>
