<svg width="40" height="40" viewBox="0 0 40 40" fill="none" xmlns="http://www.w3.org/2000/svg">
<path fill-rule="evenodd" clip-rule="evenodd" d="M33.4347 9.15203L10.9957 6.69872C10.0353 6.56873 9.05964 6.83886 8.31776 7.44084C7.58154 7.99283 7.10282 8.82123 7.00448 9.71L6.66666 12.3771L9.1332 12.3852L9.27213 9.94793C9.33987 9.63425 9.51287 9.34625 9.76155 9.13317C10.0531 8.94394 10.4055 8.85494 10.7561 8.88221L33.1582 11.3755C33.5064 11.4073 33.8209 11.5679 34.0437 11.8274C34.2666 12.0871 34.371 12.4147 34.3381 12.7486L32.4053 28.8267L32.403 28.8464L32.4031 28.8662C32.4056 29.1809 32.2536 29.4846 31.9966 29.6791L31.9668 29.7046C31.9256 29.7441 31.8072 29.796 31.7287 29.8304C31.5623 29.9031 31.3344 30.0028 31.3344 30.2489L31.3345 32.2223L31.7325 32.1483C32.3425 32.0347 32.9109 31.8043 33.4214 31.4635L33.4462 31.4452C34.1804 30.85 34.6453 30.0167 34.7552 29.098L36.6462 13.0282C36.8571 11.1174 35.4165 9.37852 33.4347 9.15203Z" fill="#00944C"/>
<path fill-rule="evenodd" clip-rule="evenodd" d="M20 18.254C20.9643 18.254 21.746 19.0357 21.746 20C21.746 20.9643 20.9643 21.746 20 21.746C19.0357 21.746 18.254 20.9643 18.254 20C18.254 19.0357 19.0357 18.254 20 18.254ZM20 23.3334C21.8409 23.3334 23.3333 21.8411 23.3333 20.0001C23.3333 18.1591 21.841 16.6667 20 16.6667C18.1591 16.6667 16.6667 18.1591 16.6667 20.0001C16.6667 21.841 18.1591 23.3334 20 23.3334Z" fill="#DE9D1F"/>
<mask id="mask0" mask-type="alpha" maskUnits="userSpaceOnUse" x="3" y="12" width="30" height="24">
<path fill-rule="evenodd" clip-rule="evenodd" d="M3.33333 12.2224H32.2222V35.5557H3.33333V12.2224Z" fill="white"/>
</mask>
<g mask="url(#mask0)">
<path fill-rule="evenodd" clip-rule="evenodd" d="M5.57229 32.1456L5.57283 29.3461L11.6113 24.902C12.229 24.4276 13.0903 24.4692 13.6594 25.0012L18.0019 28.8282L18.0077 28.8332C18.7209 29.4324 19.6265 29.7702 20.5587 29.7847C21.2931 29.7915 22.0108 29.5987 22.634 29.2238L29.9838 24.9679V32.1273C29.9838 32.8276 29.2321 33.3156 28.5574 33.3156H6.72082L6.71131 33.3158C6.41492 33.3239 6.13392 33.2174 5.91854 33.0141C5.70316 32.811 5.57983 32.536 5.57107 32.2394C5.57016 32.2083 5.57054 32.1766 5.57229 32.1456ZM19.5038 27.1483L15.1254 23.2851C14.3989 22.6604 13.5048 22.3454 12.608 22.3454C11.804 22.3454 10.9979 22.5987 10.309 23.1096L5.57283 26.5561V15.8497C5.57283 15.1823 6.01173 14.4622 6.72082 14.4622H28.5504C29.3156 14.4971 29.9297 15.0963 29.9838 15.8606V22.3496L21.4715 27.3115C20.846 27.6822 20.0535 27.6151 19.5038 27.1483ZM32.2222 15.8497L32.2219 15.8384C32.1533 13.8557 30.5468 12.2674 28.5573 12.2224H6.72082C4.85361 12.2224 3.33439 13.8496 3.33439 15.8497V32.1231C3.312 33.0156 3.6377 33.8637 4.25186 34.5116C4.867 35.1606 5.69799 35.5309 6.59117 35.5545C6.62102 35.5554 6.65101 35.5558 6.67964 35.5558C6.69365 35.5558 6.7075 35.5556 6.72082 35.5555H28.5574C30.544 35.5555 32.2222 33.9855 32.2222 32.1273L32.2222 15.8497Z" fill="#225684"/>
</g>
</svg>
