<svg width="123" height="123" viewBox="0 0 123 123" fill="none" xmlns="http://www.w3.org/2000/svg">
<path fill-rule="evenodd" clip-rule="evenodd" d="M76.1139 80.1893C73.1389 83.3557 68.8236 84.5514 64.8193 83.4104C63.7513 79.1652 64.8633 74.5637 67.8456 71.3892C70.8206 68.2225 75.1361 67.0266 79.1402 68.1678C80.2124 72.4296 79.0886 77.0229 76.1139 80.1893ZM46.8861 80.1893C43.9111 77.0229 42.7873 72.4296 43.8597 68.1678C47.8638 67.0266 52.1793 68.2227 55.1541 71.3889C58.1904 74.6208 59.2283 79.2452 58.1805 83.4104C54.1762 84.5516 49.861 83.3557 46.8861 80.1893ZM61.4999 30.7926C69.2459 35.4478 69.2432 47.6958 61.4999 52.3488C53.754 47.6938 53.7565 35.4458 61.4999 30.7926ZM83.7085 63.3055L82.5186 62.8095C76.3282 60.2286 69.3339 61.6003 64.4233 66.2766L64.4233 57.7381C76.7897 50.2678 75.7917 30.4508 62.6707 24.4614L61.4999 23.9167L60.3292 24.4614C47.2033 30.4541 46.2148 50.2713 58.5768 57.7381L58.5768 66.2766C53.666 61.6003 46.6715 60.2286 40.4813 62.8095L39.2914 63.3055L38.8254 64.5716C33.7321 78.1167 45.0889 92.6505 58.5768 89.6945V102.5H64.4233V89.6945C77.9137 92.6509 89.2672 78.1128 84.1747 64.5716L83.7085 63.3055Z" fill="#DE9D1F"/>
<mask id="mask0" mask-type="alpha" maskUnits="userSpaceOnUse" x="10" y="10" width="86" height="83">
<path fill-rule="evenodd" clip-rule="evenodd" d="M10.25 10.25L95.6667 10.25L95.6667 92.25L10.25 92.25L10.25 10.25Z" fill="white"/>
</mask>
<g mask="url(#mask0)">
<path fill-rule="evenodd" clip-rule="evenodd" d="M88.0224 25.6501L89.5584 26.7925L93.0981 21.9297L91.803 20.7324C82.883 13.8747 72.21 10.25 60.9379 10.25C47.3986 10.25 34.6697 15.5226 25.0961 25.0962C15.5225 34.6701 10.25 47.399 10.25 60.9382C10.25 72.21 13.8745 82.883 20.7317 91.803L21.0755 92.25L25.9933 88.4695L25.6497 88.0225C19.6332 80.1959 16.4531 70.8305 16.4531 60.9382C16.4531 49.0558 21.0805 37.8848 29.4825 29.4827C37.8845 21.0806 49.0556 16.4532 60.9379 16.4532C70.8302 16.4532 80.1959 19.6335 88.0224 25.6501Z" fill="#225684"/>
</g>
<mask id="mask1" mask-type="alpha" maskUnits="userSpaceOnUse" x="27" y="30" width="86" height="83">
<path fill-rule="evenodd" clip-rule="evenodd" d="M27.3333 30.75L62.7676 30.75L112.75 30.75L112.75 112.75L27.3333 112.75L27.3333 30.75Z" fill="white"/>
</mask>
<g mask="url(#mask1)">
<path fill-rule="evenodd" clip-rule="evenodd" d="M102.037 30.75L97.0921 34.5175L97.4347 34.9669C103.387 42.7792 106.534 52.1116 106.534 61.9552C106.534 73.8625 101.897 85.0574 93.4769 93.4771C85.0567 101.897 73.8619 106.534 61.9546 106.534C52.1112 106.534 42.7791 103.388 34.9667 97.4358L33.5042 96.5218L29.2807 101.107C29.2807 101.107 29.8336 101.474 30.11 101.657C30.2511 101.751 30.4333 101.872 30.6566 102.02C30.8165 102.126 31.1993 102.38 31.1993 102.38C40.1037 109.164 50.7388 112.75 61.9546 112.75C75.5224 112.75 88.2783 107.466 97.8725 97.8724C107.466 88.2786 112.75 75.523 112.75 61.9552C112.75 50.739 109.164 40.1038 102.379 31.1996L102.037 30.75Z" fill="#225684"/>
</g>
<path fill-rule="evenodd" clip-rule="evenodd" d="M97.375 25.386C95.3593 25.386 93.7193 27.026 93.7193 29.0417C93.7193 31.0574 95.3593 32.6974 97.375 32.6974C99.3907 32.6974 101.031 31.0574 101.031 29.0417C101.031 27.026 99.3907 25.386 97.375 25.386ZM97.375 37.5833C92.665 37.5833 88.8333 33.7515 88.8333 29.0417C88.8333 24.3319 92.665 20.5 97.375 20.5C102.085 20.5 105.917 24.3319 105.917 29.0417C105.917 33.7515 102.085 37.5833 97.375 37.5833Z" fill="#00944C"/>
<path fill-rule="evenodd" clip-rule="evenodd" d="M25.625 90.3027C23.6093 90.3027 21.9694 91.9426 21.9694 93.9584C21.9694 95.9741 23.6093 97.614 25.625 97.614C27.6407 97.614 29.2807 95.9741 29.2807 93.9584C29.2807 91.9426 27.6407 90.3027 25.625 90.3027ZM25.625 102.5C20.9152 102.5 17.0833 98.6683 17.0833 93.9583C17.0833 89.2483 20.9152 85.4167 25.625 85.4167C30.3348 85.4167 34.1667 89.2483 34.1667 93.9583C34.1667 98.6683 30.3348 102.5 25.625 102.5Z" fill="#00944C"/>
</svg>
