<svg width="40" height="41" viewBox="0 0 40 41" fill="none" xmlns="http://www.w3.org/2000/svg">
<path fill-rule="evenodd" clip-rule="evenodd" d="M20 29.0899C20.7225 29.0899 21.3102 29.6777 21.3102 30.4001C21.3102 31.1226 20.7225 31.7103 20 31.7103C19.2776 31.7103 18.6897 31.1226 18.6897 30.4001C18.6897 29.6777 19.2776 29.0899 20 29.0899ZM20 33.7334C21.838 33.7334 23.3333 32.2381 23.3333 30.4001C23.3333 28.5621 21.838 27.0668 20 27.0668C18.1621 27.0668 16.6667 28.5621 16.6667 30.4001C16.6667 32.2381 18.1621 33.7334 20 33.7334Z" fill="#DE9D1F"/>
<path fill-rule="evenodd" clip-rule="evenodd" d="M32.6127 15.861C32.6127 16.5237 32.0805 17.0628 31.4264 17.0628C30.7723 17.0628 30.2402 16.5237 30.2402 15.861V14.6592H32.6127V15.861H32.6127ZM23.6383 19.1924H16.3619L15.1755 16.7889H24.8245L23.6383 19.1924ZM18.8138 23.4518H21.436V21.0483H18.8138V23.4518ZM26.4416 26.5093V32.8981C26.4416 33.5609 25.9094 34.0999 25.2553 34.0999H14.7447C14.0907 34.0999 13.5585 33.5609 13.5585 32.8981V26.5093C13.5585 25.8465 14.0907 25.3075 14.7447 25.3075H25.2553C25.9094 25.3075 26.4416 25.8465 26.4416 26.5093ZM9.75986 15.861C9.75986 16.5237 9.22762 17.0628 8.57351 17.0628C7.9194 17.0628 7.38728 16.5237 7.38728 15.861V14.6592H9.75986V15.861ZM18.4639 12.5296H21.5361L22.7224 14.9332H17.2777L18.4639 12.5296ZM30.5106 10.4V12.8036H28.4085V14.9332H24.7703L22.6682 10.674H17.3318L15.2298 14.9332H11.5915V12.8036H9.48937V10.4H7.65765V12.8036H5.55556V15.8611C5.55556 17.547 6.90939 18.9186 8.57351 18.9186C9.91842 18.9186 11.0603 18.0226 11.449 16.7889H13.1276L15.2298 21.0482H16.982V23.4518H14.7447C13.0807 23.4518 11.7268 24.8233 11.7268 26.5093V32.8981C11.7268 34.5841 13.0807 35.9556 14.7447 35.9556H25.2553C26.9195 35.9556 28.2734 34.5841 28.2734 32.8981V26.5093C28.2734 24.8233 26.9195 23.4518 25.2553 23.4518H23.2677V21.0482H24.7704L26.8724 16.7889H28.551C28.9397 18.0226 30.0815 18.9186 31.4264 18.9186C33.0906 18.9186 34.4444 17.547 34.4444 15.8611V12.8036H32.3423V10.4H30.5106Z" fill="#225684"/>
<mask id="mask0" mask-type="alpha" maskUnits="userSpaceOnUse" x="4" y="8" width="33" height="28">
<path fill-rule="evenodd" clip-rule="evenodd" d="M4.44444 35.9556H36.6667V8.17786H4.44444V35.9556Z" fill="white"/>
</mask>
<g mask="url(#mask0)">
<path fill-rule="evenodd" clip-rule="evenodd" d="M4.44444 9.28899H12.2222V7.06677H4.44444V9.28899Z" fill="#00944C"/>
<path fill-rule="evenodd" clip-rule="evenodd" d="M27.7778 9.28899H35.5556V7.06677H27.7778V9.28899Z" fill="#00944C"/>
</g>
</svg>
