<svg width="40" height="40" viewBox="0 0 40 40" fill="none" xmlns="http://www.w3.org/2000/svg">
<mask id="mask0" mask-type="alpha" maskUnits="userSpaceOnUse" x="16" y="4" width="21" height="32">
<path fill-rule="evenodd" clip-rule="evenodd" d="M16.6667 4.44434H36.6667V35.5554H16.6667V4.44434Z" fill="white"/>
</mask>
<g mask="url(#mask0)">
<path fill-rule="evenodd" clip-rule="evenodd" d="M32.9398 33.7325H20.3935C19.3644 33.7325 18.53 32.9163 18.53 31.9094V8.09028C18.53 7.08349 19.3644 6.26725 20.3935 6.26725H32.9398C33.969 6.26725 34.8033 7.08349 34.8033 8.09028V31.9094C34.8033 32.9163 33.969 33.7325 32.9398 33.7325ZM33.8715 4.44434H19.4618C17.9181 4.44434 16.6667 5.6686 16.6667 7.17883V9.9121V14.8542V16.6881V21.2792V23.2582V27.0918V29.0708V31.5312V32.9368C16.6667 34.3424 18.0463 35.5555 19.0378 35.5555H33.8715C35.4152 35.5555 36.6667 34.3312 36.6667 32.821V7.17883C36.6667 5.6686 35.4152 4.44434 33.8715 4.44434Z" fill="#225684"/>
</g>
<path fill-rule="evenodd" clip-rule="evenodd" d="M23.3333 14.8814C23.9982 14.8814 24.539 15.3676 24.539 15.9652C24.539 16.5626 23.9985 17.0486 23.334 17.049C23.3338 17.049 23.3335 17.0489 23.3333 17.0489C23.3331 17.0489 23.3329 17.049 23.3326 17.049C22.6682 17.0486 22.1277 16.5626 22.1277 15.9652C22.1277 15.3676 22.6685 14.8814 23.3333 14.8814ZM22.2695 18.8041V31.2657C22.2695 31.7938 22.7458 32.222 23.3333 32.222C23.9209 32.222 24.3972 31.7938 24.3972 31.2657V18.8041C25.7149 18.4041 26.6667 17.2831 26.6667 15.9652C26.6667 14.6473 25.7149 13.5263 24.3972 13.1262V9.84496C24.3972 9.31683 23.9209 8.88867 23.3333 8.88867C22.7458 8.88867 22.2695 9.31683 22.2695 9.84496V13.1262C20.9518 13.5263 20 14.6473 20 15.9652C20 17.2831 20.9518 18.4041 22.2695 18.8041Z" fill="#00944C"/>
<path fill-rule="evenodd" clip-rule="evenodd" d="M30 24.0617C30.6648 24.0617 31.2057 24.548 31.2057 25.1455C31.2057 25.7431 30.6648 26.2293 30 26.2293C29.3352 26.2293 28.7943 25.7431 28.7943 25.1455C28.7943 24.548 29.3352 24.0617 30 24.0617ZM28.8652 27.9628V31.2657C28.8652 31.7938 29.3415 32.222 29.9291 32.222C30.5166 32.222 30.9929 31.7938 30.9929 31.2657V28.0061C32.3476 27.6253 33.3333 26.487 33.3333 25.1455C33.3333 23.8276 32.3815 22.7066 31.0638 22.3066V9.84496C31.0638 9.31677 30.5875 8.88867 30 8.88867C29.4125 8.88867 28.9362 9.31677 28.9362 9.84496V22.3066C27.6184 22.7066 26.6667 23.8276 26.6667 25.1455C26.6667 26.4398 27.5842 27.5447 28.8652 27.9628Z" fill="#00944C"/>
<path fill-rule="evenodd" clip-rule="evenodd" d="M14.4444 32.5906L13.3236 32.5906C12.94 32.5906 12.556 32.5654 12.1757 32.5155V31.0659C12.1757 30.6562 11.9211 30.2951 11.5496 30.1778C11.1411 30.0489 10.7449 29.8751 10.3719 29.6612C10.0305 29.4654 9.60789 29.5301 9.33315 29.8204L8.36198 30.8464C8.05982 30.5978 7.77152 30.3288 7.50005 30.042C7.22853 29.7551 6.97385 29.4505 6.73859 29.1313L7.70976 28.1052C7.9845 27.815 8.04578 27.3682 7.8604 27.0076C7.65795 26.6135 7.4935 26.195 7.37152 25.7634C7.26058 25.3708 6.91877 25.1017 6.53099 25.1017H5.15871C5.11152 24.7001 5.08771 24.2942 5.08771 23.8887C5.08771 23.4831 5.11152 23.0774 5.15871 22.6759H6.53099C6.91877 22.6759 7.26058 22.4068 7.37152 22.0142C7.4935 21.5826 7.65795 21.164 7.8604 20.77C8.04578 20.4093 7.9845 19.9627 7.70976 19.6724L6.73859 18.6463C6.97391 18.3271 7.22859 18.0224 7.50005 17.7357C7.77152 17.4488 8.05982 17.1798 8.36198 16.9311L9.33315 17.9572C9.60783 18.2475 10.0305 18.3122 10.3719 18.1164C10.7448 17.9025 11.1411 17.7286 11.5496 17.5998C11.9212 17.4825 12.1757 17.1214 12.1757 16.7117V15.262C12.9274 15.1634 13.6926 15.1623 14.4444 15.2588V13.394C14.0723 13.3539 13.6978 13.3334 13.3236 13.3333C12.5848 13.3333 11.8446 13.4119 11.1235 13.5671C10.7149 13.655 10.4213 14.0346 10.4213 14.4752V16.0517C10.3238 16.092 10.2271 16.1345 10.1312 16.179L9.0759 15.064C8.78111 14.7525 8.31935 14.7032 7.97163 14.9464C7.35842 15.375 6.78245 15.8725 6.25953 16.4249C5.73649 16.9775 5.26561 17.5862 4.86011 18.2341C4.63011 18.6015 4.67666 19.0892 4.97152 19.4007L6.02672 20.5157C5.98467 20.617 5.9445 20.7192 5.90631 20.8223H4.41403C3.99707 20.8223 3.63771 21.1325 3.5545 21.5641C3.40777 22.3252 3.33333 23.1073 3.33333 23.8888C3.33333 24.6702 3.40777 25.4523 3.5545 26.2135C3.63771 26.6452 3.99707 26.9553 4.41403 26.9553H5.90625C5.9445 27.0584 5.98467 27.1606 6.02666 27.2619L4.97146 28.3769C4.67666 28.6884 4.63005 29.1761 4.86005 29.5435C5.26561 30.1914 5.73643 30.8 6.25953 31.3528C6.78233 31.9052 7.35842 32.4026 7.97163 32.8312C8.31941 33.0743 8.78105 33.0251 9.0759 32.7136L10.1312 31.5986C10.2271 31.6431 10.3238 31.6855 10.4213 31.7259V33.3024C10.4213 33.743 10.7149 34.1226 11.1235 34.2106C11.8446 34.3657 12.5848 34.4444 13.3237 34.4444H14.4444V32.5906Z" fill="#DE9D1F"/>
<path fill-rule="evenodd" clip-rule="evenodd" d="M13.2079 21.7427C13.6462 21.7427 14.0733 21.8526 14.4444 22.0564V20.1643C14.0461 20.0568 13.6301 20 13.2079 20C10.8264 20 8.88889 21.7445 8.88889 23.8889C8.88889 26.0332 10.8264 27.7778 13.2079 27.7778C13.6301 27.7778 14.0461 27.7209 14.4444 27.6134V25.7213C14.0733 25.9251 13.6462 26.035 13.2079 26.035C11.8936 26.035 10.8244 25.0722 10.8244 23.8889C10.8244 22.7054 11.8937 21.7427 13.2079 21.7427Z" fill="#DE9D1F"/>
</svg>
