<svg width="123" height="123" viewBox="0 0 123 123" fill="none" xmlns="http://www.w3.org/2000/svg">
<path fill-rule="evenodd" clip-rule="evenodd" d="M61.5002 88.2211C63.7217 88.2211 65.5291 90.0285 65.5291 92.2501C65.5291 94.4716 63.7217 96.2789 61.5002 96.2789C59.2786 96.2789 57.471 94.4716 57.471 92.2501C57.471 90.0285 59.2786 88.2211 61.5002 88.2211ZM61.5001 102.5C67.1518 102.5 71.75 97.902 71.75 92.2501C71.75 86.5982 67.1518 82 61.5001 82C55.8483 82 51.25 86.5982 51.25 92.2501C51.25 97.902 55.8483 102.5 61.5001 102.5Z" fill="#DE9D1F"/>
<path fill-rule="evenodd" clip-rule="evenodd" d="M100.284 47.5425C100.284 49.5803 98.6476 51.2381 96.6363 51.2381C94.6249 51.2381 92.9886 49.5803 92.9886 47.5425V43.847L100.284 43.847V47.5425H100.284ZM72.6877 57.7868L50.3127 57.7868L46.6647 50.3958L76.3353 50.3958L72.6877 57.7868ZM57.8523 70.884L65.9157 70.884V63.4932L57.8523 63.4932V70.884ZM81.308 80.2861V99.9318C81.308 101.97 79.6714 103.627 77.66 103.627L45.34 103.627C43.3288 103.627 41.6923 101.97 41.6923 99.9318V80.2861C41.6923 78.2482 43.3288 76.5905 45.34 76.5905L77.6602 76.5905C79.6713 76.5905 81.308 78.2482 81.308 80.2861ZM30.0116 47.5425C30.0116 49.5803 28.3749 51.2381 26.3635 51.2381C24.3521 51.2381 22.7159 49.5803 22.7159 47.5425V43.847H30.0116V47.5425ZM56.7765 37.2985L66.2235 37.2985L69.8715 44.6894L53.1289 44.6894L56.7765 37.2985ZM93.82 30.75V38.141L87.356 38.141V44.6897H76.1687L69.7046 31.5924L53.2954 31.5924L46.8317 44.6897H35.6439V38.141L29.1798 38.141V30.75L23.5472 30.75V38.141H17.0833V47.5428C17.0833 52.7269 21.2463 56.9446 26.3635 56.9446C30.4991 56.9446 34.0105 54.1893 35.2057 50.3959L40.3674 50.3959L46.8317 63.4932H52.2198V70.8841H45.34C40.223 70.8841 36.0598 75.1016 36.0598 80.2859V99.9317C36.0598 105.116 40.223 109.333 45.34 109.333L77.6602 109.333C82.7773 109.333 86.9407 105.116 86.9407 99.9317V80.2859C86.9407 75.1016 82.7773 70.8841 77.6602 70.8841H71.5483V63.4932H76.1688L82.6326 50.3959H87.7943C88.9897 54.1893 92.5006 56.9446 96.6363 56.9446C101.753 56.9446 105.917 52.7269 105.917 47.5428V38.141H99.4525V30.75L93.82 30.75Z" fill="#225684"/>
<mask id="mask0" mask-type="alpha" maskUnits="userSpaceOnUse" x="13" y="23" width="100" height="87">
<path fill-rule="evenodd" clip-rule="evenodd" d="M13.6667 109.333L112.75 109.333L112.75 23.9167L13.6667 23.9167L13.6667 109.333Z" fill="white"/>
</mask>
<g mask="url(#mask0)">
<path fill-rule="evenodd" clip-rule="evenodd" d="M13.6667 27.3333L37.5833 27.3333V20.5L13.6667 20.5L13.6667 27.3333Z" fill="#00944C"/>
<path fill-rule="evenodd" clip-rule="evenodd" d="M85.4167 27.3333L109.333 27.3333V20.5L85.4167 20.5V27.3333Z" fill="#00944C"/>
</g>
</svg>
